%TF.GenerationSoftware,KiCad,Pcbnew,(6.0.6)*%
%TF.CreationDate,2022-07-21T13:44:36+08:00*%
%TF.ProjectId,graccel_mouse,67726163-6365-46c5-9f6d-6f7573652e6b,v0.1*%
%TF.SameCoordinates,Original*%
%TF.FileFunction,Paste,Top*%
%TF.FilePolarity,Positive*%
%FSLAX46Y46*%
G04 Gerber Fmt 4.6, Leading zero omitted, Abs format (unit mm)*
G04 Created by KiCad (PCBNEW (6.0.6)) date 2022-07-21 13:44:36*
%MOMM*%
%LPD*%
G01*
G04 APERTURE LIST*
G04 Aperture macros list*
%AMRoundRect*
0 Rectangle with rounded corners*
0 $1 Rounding radius*
0 $2 $3 $4 $5 $6 $7 $8 $9 X,Y pos of 4 corners*
0 Add a 4 corners polygon primitive as box body*
4,1,4,$2,$3,$4,$5,$6,$7,$8,$9,$2,$3,0*
0 Add four circle primitives for the rounded corners*
1,1,$1+$1,$2,$3*
1,1,$1+$1,$4,$5*
1,1,$1+$1,$6,$7*
1,1,$1+$1,$8,$9*
0 Add four rect primitives between the rounded corners*
20,1,$1+$1,$2,$3,$4,$5,0*
20,1,$1+$1,$4,$5,$6,$7,0*
20,1,$1+$1,$6,$7,$8,$9,0*
20,1,$1+$1,$8,$9,$2,$3,0*%
G04 Aperture macros list end*
%ADD10R,1.380000X0.450000*%
%ADD11R,1.900000X1.800000*%
%ADD12R,1.300000X1.650000*%
%ADD13R,1.550000X1.425000*%
%ADD14R,1.900000X1.000000*%
%ADD15RoundRect,0.140000X-0.140000X-0.170000X0.140000X-0.170000X0.140000X0.170000X-0.140000X0.170000X0*%
%ADD16RoundRect,0.135000X0.135000X0.185000X-0.135000X0.185000X-0.135000X-0.185000X0.135000X-0.185000X0*%
%ADD17R,1.200000X1.400000*%
%ADD18R,1.500000X2.000000*%
%ADD19R,3.800000X2.000000*%
%ADD20RoundRect,0.140000X0.170000X-0.140000X0.170000X0.140000X-0.170000X0.140000X-0.170000X-0.140000X0*%
%ADD21RoundRect,0.218750X-0.256250X0.218750X-0.256250X-0.218750X0.256250X-0.218750X0.256250X0.218750X0*%
%ADD22RoundRect,0.140000X-0.170000X0.140000X-0.170000X-0.140000X0.170000X-0.140000X0.170000X0.140000X0*%
%ADD23RoundRect,0.140000X0.140000X0.170000X-0.140000X0.170000X-0.140000X-0.170000X0.140000X-0.170000X0*%
%ADD24RoundRect,0.218750X-0.218750X-0.256250X0.218750X-0.256250X0.218750X0.256250X-0.218750X0.256250X0*%
%ADD25RoundRect,0.135000X-0.135000X-0.185000X0.135000X-0.185000X0.135000X0.185000X-0.135000X0.185000X0*%
%ADD26RoundRect,0.135000X-0.185000X0.135000X-0.185000X-0.135000X0.185000X-0.135000X0.185000X0.135000X0*%
%ADD27RoundRect,0.250000X-0.250000X-0.475000X0.250000X-0.475000X0.250000X0.475000X-0.250000X0.475000X0*%
%ADD28RoundRect,0.225000X0.225000X0.250000X-0.225000X0.250000X-0.225000X-0.250000X0.225000X-0.250000X0*%
%ADD29RoundRect,0.250000X0.475000X-0.250000X0.475000X0.250000X-0.475000X0.250000X-0.475000X-0.250000X0*%
%ADD30RoundRect,0.075000X-0.662500X-0.075000X0.662500X-0.075000X0.662500X0.075000X-0.662500X0.075000X0*%
%ADD31RoundRect,0.075000X-0.075000X-0.662500X0.075000X-0.662500X0.075000X0.662500X-0.075000X0.662500X0*%
%ADD32RoundRect,0.150000X-0.325000X-0.150000X0.325000X-0.150000X0.325000X0.150000X-0.325000X0.150000X0*%
%ADD33RoundRect,0.150000X-0.150000X-0.325000X0.150000X-0.325000X0.150000X0.325000X-0.150000X0.325000X0*%
%ADD34R,0.800000X1.000000*%
%ADD35R,1.500000X0.700000*%
G04 APERTURE END LIST*
D10*
%TO.C,J1*%
X154620000Y-96100000D03*
X154620000Y-95450000D03*
X154620000Y-94800000D03*
X154620000Y-94150000D03*
X154620000Y-93500000D03*
D11*
X157280000Y-95950000D03*
D12*
X157280000Y-91425000D03*
X157280000Y-98175000D03*
D13*
X154705000Y-97287500D03*
D14*
X157280000Y-93250000D03*
D13*
X154705000Y-92312500D03*
%TD*%
D15*
%TO.C,C7*%
X137750000Y-88657500D03*
X138710000Y-88657500D03*
%TD*%
D16*
%TO.C,R5*%
X93982000Y-90170000D03*
X92962000Y-90170000D03*
%TD*%
%TO.C,R6*%
X93982000Y-98806000D03*
X92962000Y-98806000D03*
%TD*%
D17*
%TO.C,Y1*%
X111930000Y-95597500D03*
X111930000Y-97797500D03*
X113630000Y-97797500D03*
X113630000Y-95597500D03*
%TD*%
D18*
%TO.C,U1*%
X151400000Y-119637500D03*
D19*
X149100000Y-125937500D03*
D18*
X149100000Y-119637500D03*
X146800000Y-119637500D03*
%TD*%
D20*
%TO.C,C15*%
X138220000Y-110927500D03*
X138220000Y-109967500D03*
%TD*%
D21*
%TO.C,FB1*%
X127200000Y-100860000D03*
X127200000Y-102435000D03*
%TD*%
D22*
%TO.C,C16*%
X138160000Y-107807500D03*
X138160000Y-108767500D03*
%TD*%
D23*
%TO.C,C4*%
X116900000Y-91447500D03*
X115940000Y-91447500D03*
%TD*%
%TO.C,C13*%
X124670000Y-102617500D03*
X123710000Y-102617500D03*
%TD*%
D24*
%TO.C,D1*%
X140752500Y-125947500D03*
X142327500Y-125947500D03*
%TD*%
D25*
%TO.C,R4*%
X92962000Y-92964000D03*
X93982000Y-92964000D03*
%TD*%
D20*
%TO.C,C14*%
X136690000Y-110980000D03*
X136690000Y-110020000D03*
%TD*%
D22*
%TO.C,C10*%
X132480000Y-93037500D03*
X132480000Y-93997500D03*
%TD*%
D16*
%TO.C,R1*%
X139100000Y-125970000D03*
X138080000Y-125970000D03*
%TD*%
D25*
%TO.C,R2*%
X134020000Y-86710000D03*
X135040000Y-86710000D03*
%TD*%
D26*
%TO.C,R3*%
X149930000Y-93620000D03*
X149930000Y-94640000D03*
%TD*%
D22*
%TO.C,C8*%
X147510000Y-92640000D03*
X147510000Y-93600000D03*
%TD*%
D16*
%TO.C,R8*%
X93982000Y-101854000D03*
X92962000Y-101854000D03*
%TD*%
D27*
%TO.C,C1*%
X148070000Y-115497500D03*
X149970000Y-115497500D03*
%TD*%
D20*
%TO.C,C5*%
X116150000Y-98197500D03*
X116150000Y-97237500D03*
%TD*%
D28*
%TO.C,C3*%
X130640000Y-88400000D03*
X129090000Y-88400000D03*
%TD*%
D20*
%TO.C,C11*%
X132270000Y-98060000D03*
X132270000Y-97100000D03*
%TD*%
D29*
%TO.C,C6*%
X154150000Y-121797500D03*
X154150000Y-119897500D03*
%TD*%
D16*
%TO.C,R7*%
X94236000Y-95758000D03*
X93216000Y-95758000D03*
%TD*%
D30*
%TO.C,U2*%
X136767500Y-93377500D03*
X136767500Y-93877500D03*
X136767500Y-94377500D03*
X136767500Y-94877500D03*
X136767500Y-95377500D03*
X136767500Y-95877500D03*
X136767500Y-96377500D03*
X136767500Y-96877500D03*
X136767500Y-97377500D03*
X136767500Y-97877500D03*
X136767500Y-98377500D03*
X136767500Y-98877500D03*
D31*
X138180000Y-100290000D03*
X138680000Y-100290000D03*
X139180000Y-100290000D03*
X139680000Y-100290000D03*
X140180000Y-100290000D03*
X140680000Y-100290000D03*
X141180000Y-100290000D03*
X141680000Y-100290000D03*
X142180000Y-100290000D03*
X142680000Y-100290000D03*
X143180000Y-100290000D03*
X143680000Y-100290000D03*
D30*
X145092500Y-98877500D03*
X145092500Y-98377500D03*
X145092500Y-97877500D03*
X145092500Y-97377500D03*
X145092500Y-96877500D03*
X145092500Y-96377500D03*
X145092500Y-95877500D03*
X145092500Y-95377500D03*
X145092500Y-94877500D03*
X145092500Y-94377500D03*
X145092500Y-93877500D03*
X145092500Y-93377500D03*
D31*
X143680000Y-91965000D03*
X143180000Y-91965000D03*
X142680000Y-91965000D03*
X142180000Y-91965000D03*
X141680000Y-91965000D03*
X141180000Y-91965000D03*
X140680000Y-91965000D03*
X140180000Y-91965000D03*
X139680000Y-91965000D03*
X139180000Y-91965000D03*
X138680000Y-91965000D03*
X138180000Y-91965000D03*
%TD*%
D23*
%TO.C,C12*%
X124720000Y-100917500D03*
X123760000Y-100917500D03*
%TD*%
%TO.C,C9*%
X143980000Y-103357500D03*
X143020000Y-103357500D03*
%TD*%
D32*
%TO.C,U3*%
X140810000Y-107510000D03*
X140810000Y-108310000D03*
X140810000Y-109110000D03*
X140810000Y-109910000D03*
X140810000Y-110710000D03*
X140810000Y-111510000D03*
D33*
X141810000Y-111510000D03*
D32*
X142810000Y-111510000D03*
X142810000Y-110710000D03*
X142810000Y-109910000D03*
X142810000Y-109110000D03*
X142810000Y-108310000D03*
X142810000Y-107510000D03*
D33*
X141810000Y-107510000D03*
%TD*%
D34*
%TO.C,SW1*%
X82655000Y-76050000D03*
X84865000Y-76050000D03*
X84865000Y-83350000D03*
X82655000Y-83350000D03*
D35*
X85515000Y-77450000D03*
X85515000Y-80450000D03*
X85515000Y-81950000D03*
%TD*%
D20*
%TO.C,C2*%
X116150000Y-95777500D03*
X116150000Y-94817500D03*
%TD*%
M02*
