M48
; DRILL file {KiCad (6.0.6)} date Thu Jul 21 13:44:27 2022
; FORMAT={-:-/ absolute / metric / decimal}
; #@! TF.CreationDate,2022-07-21T13:44:27+08:00
; #@! TF.GenerationSoftware,Kicad,Pcbnew,(6.0.6)
; #@! TF.FileFunction,MixedPlating,1,2
FMAT,2
METRIC
; #@! TA.AperFunction,Plated,PTH,ViaDrill
T1C0.300
; #@! TA.AperFunction,Plated,PTH,ViaDrill
T2C0.400
; #@! TA.AperFunction,Plated,PTH,ComponentDrill
T3C1.000
; #@! TA.AperFunction,Plated,PTH,ComponentDrill
T4C1.100
; #@! TA.AperFunction,NonPlated,NPTH,ComponentDrill
T5C0.900
%
G90
G05
T1
X112.92Y-99.61
X114.49Y-91.43
X114.922Y-94.817
X123.71Y-101.8
X129.23Y-97.16
X129.49Y-93.94
X131.64Y-102.44
X136.9Y-108.73
X140.99Y-123.55
X151.4Y-116.927
T2
X86.36Y-98.552
X86.36Y-107.696
X86.614Y-96.012
X86.868Y-74.168
X87.376Y-89.662
X87.376Y-93.472
X87.63Y-77.216
X90.932Y-92.71
X91.694Y-89.408
X93.958Y-88.668
X94.488Y-82.296
X94.742Y-98.044
X94.996Y-94.488
X95.25Y-87.376
X95.25Y-90.17
X95.25Y-91.694
X96.774Y-94.488
X96.774Y-98.044
X97.028Y-83.82
X97.028Y-90.17
X98.552Y-103.124
X98.552Y-106.172
X98.806Y-85.09
X103.632Y-82.296
X104.902Y-83.312
X105.918Y-75.184
X106.172Y-80.264
X106.68Y-81.534
X119.38Y-96.266
X123.952Y-93.218
X124.206Y-73.152
X124.206Y-91.186
X125.73Y-90.17
X126.238Y-66.802
X126.492Y-84.074
X126.514Y-91.716
X126.746Y-75.184
X126.746Y-76.962
X127.0Y-72.136
X127.53Y-90.7
X129.286Y-86.868
X129.54Y-73.406
X129.54Y-100.33
X130.026Y-84.56
X132.334Y-84.836
X132.334Y-108.458
X132.334Y-110.998
X132.588Y-86.36
X134.642Y-84.052
X135.89Y-80.772
X135.89Y-84.074
X135.995Y-87.525
X137.817Y-84.836
X138.938Y-83.312
X139.192Y-104.648
X139.415Y-85.375
X139.7Y-98.552
X140.208Y-83.058
X140.208Y-113.792
X140.249Y-84.823
X141.224Y-102.362
X141.499Y-84.836
X144.272Y-87.122
X144.526Y-105.664
X145.288Y-92.202
X146.05Y-89.154
X146.304Y-90.424
X148.59Y-74.93
X149.098Y-90.932
X149.86Y-84.074
X150.622Y-85.09
X151.057Y-89.227
X151.13Y-86.106
X151.638Y-87.122
X153.902Y-83.036
X157.734Y-89.154
X157.988Y-108.712
X158.242Y-100.838
T3
X83.79Y-89.86
X83.79Y-92.4
X83.79Y-94.94
X83.79Y-97.48
X83.79Y-100.02
X83.79Y-102.56
X83.79Y-105.1
X83.79Y-107.64
X150.3Y-111.19
X152.84Y-111.19
X155.38Y-111.19
X157.92Y-111.19
T4
X96.6Y-75.27
X96.6Y-79.77
X103.1Y-75.27
X103.1Y-79.77
X117.54Y-84.08
X117.54Y-88.58
X117.77Y-66.68
X117.77Y-71.18
X117.99Y-75.11
X117.99Y-79.61
X124.04Y-84.08
X124.04Y-88.58
X124.27Y-66.68
X124.27Y-71.18
X124.49Y-75.11
X124.49Y-79.61
X139.75Y-75.05
X139.75Y-79.55
X146.25Y-75.05
X146.25Y-79.55
T5
X83.755Y-78.2
X83.755Y-81.2
T0
M30
