%TF.GenerationSoftware,KiCad,Pcbnew,(6.0.6)*%
%TF.CreationDate,2022-07-21T13:44:36+08:00*%
%TF.ProjectId,graccel_mouse,67726163-6365-46c5-9f6d-6f7573652e6b,v0.1*%
%TF.SameCoordinates,Original*%
%TF.FileFunction,Copper,L1,Top*%
%TF.FilePolarity,Positive*%
%FSLAX46Y46*%
G04 Gerber Fmt 4.6, Leading zero omitted, Abs format (unit mm)*
G04 Created by KiCad (PCBNEW (6.0.6)) date 2022-07-21 13:44:36*
%MOMM*%
%LPD*%
G01*
G04 APERTURE LIST*
G04 Aperture macros list*
%AMRoundRect*
0 Rectangle with rounded corners*
0 $1 Rounding radius*
0 $2 $3 $4 $5 $6 $7 $8 $9 X,Y pos of 4 corners*
0 Add a 4 corners polygon primitive as box body*
4,1,4,$2,$3,$4,$5,$6,$7,$8,$9,$2,$3,0*
0 Add four circle primitives for the rounded corners*
1,1,$1+$1,$2,$3*
1,1,$1+$1,$4,$5*
1,1,$1+$1,$6,$7*
1,1,$1+$1,$8,$9*
0 Add four rect primitives between the rounded corners*
20,1,$1+$1,$2,$3,$4,$5,0*
20,1,$1+$1,$4,$5,$6,$7,0*
20,1,$1+$1,$6,$7,$8,$9,0*
20,1,$1+$1,$8,$9,$2,$3,0*%
G04 Aperture macros list end*
%TA.AperFunction,SMDPad,CuDef*%
%ADD10R,1.380000X0.450000*%
%TD*%
%TA.AperFunction,SMDPad,CuDef*%
%ADD11R,1.900000X1.800000*%
%TD*%
%TA.AperFunction,SMDPad,CuDef*%
%ADD12R,1.300000X1.650000*%
%TD*%
%TA.AperFunction,SMDPad,CuDef*%
%ADD13R,1.550000X1.425000*%
%TD*%
%TA.AperFunction,SMDPad,CuDef*%
%ADD14R,1.900000X1.000000*%
%TD*%
%TA.AperFunction,SMDPad,CuDef*%
%ADD15RoundRect,0.140000X-0.140000X-0.170000X0.140000X-0.170000X0.140000X0.170000X-0.140000X0.170000X0*%
%TD*%
%TA.AperFunction,ComponentPad*%
%ADD16R,1.700000X1.700000*%
%TD*%
%TA.AperFunction,ComponentPad*%
%ADD17O,1.700000X1.700000*%
%TD*%
%TA.AperFunction,SMDPad,CuDef*%
%ADD18RoundRect,0.135000X0.135000X0.185000X-0.135000X0.185000X-0.135000X-0.185000X0.135000X-0.185000X0*%
%TD*%
%TA.AperFunction,SMDPad,CuDef*%
%ADD19R,1.200000X1.400000*%
%TD*%
%TA.AperFunction,SMDPad,CuDef*%
%ADD20R,1.500000X2.000000*%
%TD*%
%TA.AperFunction,SMDPad,CuDef*%
%ADD21R,3.800000X2.000000*%
%TD*%
%TA.AperFunction,SMDPad,CuDef*%
%ADD22RoundRect,0.140000X0.170000X-0.140000X0.170000X0.140000X-0.170000X0.140000X-0.170000X-0.140000X0*%
%TD*%
%TA.AperFunction,SMDPad,CuDef*%
%ADD23RoundRect,0.218750X-0.256250X0.218750X-0.256250X-0.218750X0.256250X-0.218750X0.256250X0.218750X0*%
%TD*%
%TA.AperFunction,ComponentPad*%
%ADD24C,2.000000*%
%TD*%
%TA.AperFunction,SMDPad,CuDef*%
%ADD25RoundRect,0.140000X-0.170000X0.140000X-0.170000X-0.140000X0.170000X-0.140000X0.170000X0.140000X0*%
%TD*%
%TA.AperFunction,SMDPad,CuDef*%
%ADD26RoundRect,0.140000X0.140000X0.170000X-0.140000X0.170000X-0.140000X-0.170000X0.140000X-0.170000X0*%
%TD*%
%TA.AperFunction,SMDPad,CuDef*%
%ADD27RoundRect,0.218750X-0.218750X-0.256250X0.218750X-0.256250X0.218750X0.256250X-0.218750X0.256250X0*%
%TD*%
%TA.AperFunction,SMDPad,CuDef*%
%ADD28RoundRect,0.135000X-0.135000X-0.185000X0.135000X-0.185000X0.135000X0.185000X-0.135000X0.185000X0*%
%TD*%
%TA.AperFunction,SMDPad,CuDef*%
%ADD29C,1.000000*%
%TD*%
%TA.AperFunction,SMDPad,CuDef*%
%ADD30RoundRect,0.135000X-0.185000X0.135000X-0.185000X-0.135000X0.185000X-0.135000X0.185000X0.135000X0*%
%TD*%
%TA.AperFunction,SMDPad,CuDef*%
%ADD31RoundRect,0.250000X-0.250000X-0.475000X0.250000X-0.475000X0.250000X0.475000X-0.250000X0.475000X0*%
%TD*%
%TA.AperFunction,SMDPad,CuDef*%
%ADD32RoundRect,0.225000X0.225000X0.250000X-0.225000X0.250000X-0.225000X-0.250000X0.225000X-0.250000X0*%
%TD*%
%TA.AperFunction,SMDPad,CuDef*%
%ADD33RoundRect,0.250000X0.475000X-0.250000X0.475000X0.250000X-0.475000X0.250000X-0.475000X-0.250000X0*%
%TD*%
%TA.AperFunction,SMDPad,CuDef*%
%ADD34RoundRect,0.075000X-0.662500X-0.075000X0.662500X-0.075000X0.662500X0.075000X-0.662500X0.075000X0*%
%TD*%
%TA.AperFunction,SMDPad,CuDef*%
%ADD35RoundRect,0.075000X-0.075000X-0.662500X0.075000X-0.662500X0.075000X0.662500X-0.075000X0.662500X0*%
%TD*%
%TA.AperFunction,SMDPad,CuDef*%
%ADD36RoundRect,0.150000X-0.325000X-0.150000X0.325000X-0.150000X0.325000X0.150000X-0.325000X0.150000X0*%
%TD*%
%TA.AperFunction,SMDPad,CuDef*%
%ADD37RoundRect,0.150000X-0.150000X-0.325000X0.150000X-0.325000X0.150000X0.325000X-0.150000X0.325000X0*%
%TD*%
%TA.AperFunction,SMDPad,CuDef*%
%ADD38R,0.800000X1.000000*%
%TD*%
%TA.AperFunction,SMDPad,CuDef*%
%ADD39R,1.500000X0.700000*%
%TD*%
%TA.AperFunction,ViaPad*%
%ADD40C,0.800000*%
%TD*%
%TA.AperFunction,ViaPad*%
%ADD41C,0.700000*%
%TD*%
%TA.AperFunction,Conductor*%
%ADD42C,0.250000*%
%TD*%
%TA.AperFunction,Conductor*%
%ADD43C,0.300000*%
%TD*%
%TA.AperFunction,Conductor*%
%ADD44C,0.500000*%
%TD*%
%TA.AperFunction,Conductor*%
%ADD45C,0.200000*%
%TD*%
G04 APERTURE END LIST*
D10*
%TO.P,J1,1,VBUS*%
%TO.N,VBUS*%
X154620000Y-96100000D03*
%TO.P,J1,2,D-*%
%TO.N,/USB_D-*%
X154620000Y-95450000D03*
%TO.P,J1,3,D+*%
%TO.N,/USB_D+*%
X154620000Y-94800000D03*
%TO.P,J1,4,ID*%
%TO.N,unconnected-(J1-Pad4)*%
X154620000Y-94150000D03*
%TO.P,J1,5,GND*%
%TO.N,GND*%
X154620000Y-93500000D03*
D11*
%TO.P,J1,6,Shield*%
X157280000Y-95950000D03*
D12*
X157280000Y-91425000D03*
X157280000Y-98175000D03*
D13*
X154705000Y-97287500D03*
D14*
X157280000Y-93250000D03*
D13*
X154705000Y-92312500D03*
%TD*%
D15*
%TO.P,C7,1*%
%TO.N,+3.3V*%
X137750000Y-88657500D03*
%TO.P,C7,2*%
%TO.N,GND*%
X138710000Y-88657500D03*
%TD*%
D16*
%TO.P,J3,1,Pin_1*%
%TO.N,+3.3V*%
X150300000Y-111190000D03*
D17*
%TO.P,J3,2,Pin_2*%
%TO.N,/USART1_TX*%
X152840000Y-111190000D03*
%TO.P,J3,3,Pin_3*%
%TO.N,/USART1_RX*%
X155380000Y-111190000D03*
%TO.P,J3,4,Pin_4*%
%TO.N,GND*%
X157920000Y-111190000D03*
%TD*%
D18*
%TO.P,R5,1*%
%TO.N,+3.3V*%
X93982000Y-90170000D03*
%TO.P,R5,2*%
%TO.N,/JTMS_SWDIO*%
X92962000Y-90170000D03*
%TD*%
%TO.P,R6,1*%
%TO.N,+3.3V*%
X93982000Y-98806000D03*
%TO.P,R6,2*%
%TO.N,/JTDO*%
X92962000Y-98806000D03*
%TD*%
D19*
%TO.P,Y1,1,1*%
%TO.N,/HSE_IN*%
X111930000Y-95597500D03*
%TO.P,Y1,2,2*%
%TO.N,GND*%
X111930000Y-97797500D03*
%TO.P,Y1,3,3*%
%TO.N,/HSE_OUT*%
X113630000Y-97797500D03*
%TO.P,Y1,4,4*%
%TO.N,GND*%
X113630000Y-95597500D03*
%TD*%
D20*
%TO.P,U1,1,GND*%
%TO.N,GND*%
X151400000Y-119637500D03*
D21*
%TO.P,U1,2,VO*%
%TO.N,+3.3V*%
X149100000Y-125937500D03*
D20*
X149100000Y-119637500D03*
%TO.P,U1,3,VI*%
%TO.N,VBUS*%
X146800000Y-119637500D03*
%TD*%
D22*
%TO.P,C15,1*%
%TO.N,+3.3V*%
X138220000Y-110927500D03*
%TO.P,C15,2*%
%TO.N,GND*%
X138220000Y-109967500D03*
%TD*%
D23*
%TO.P,FB1,1*%
%TO.N,+3.3VA*%
X127200000Y-100860000D03*
%TO.P,FB1,2*%
%TO.N,+3.3V*%
X127200000Y-102435000D03*
%TD*%
D24*
%TO.P,SW4,1,1*%
%TO.N,GND*%
X117990000Y-75110000D03*
X124490000Y-75110000D03*
%TO.P,SW4,2,2*%
%TO.N,/WHEEL_CLICK*%
X117990000Y-79610000D03*
X124490000Y-79610000D03*
%TD*%
D25*
%TO.P,C16,1*%
%TO.N,+3.3V*%
X138160000Y-107807500D03*
%TO.P,C16,2*%
%TO.N,GND*%
X138160000Y-108767500D03*
%TD*%
D26*
%TO.P,C4,1*%
%TO.N,/NRST*%
X116900000Y-91447500D03*
%TO.P,C4,2*%
%TO.N,GND*%
X115940000Y-91447500D03*
%TD*%
D24*
%TO.P,SW5,1,1*%
%TO.N,GND*%
X117540000Y-84080000D03*
X124040000Y-84080000D03*
%TO.P,SW5,2,2*%
%TO.N,/WH_DOWN*%
X124040000Y-88580000D03*
X117540000Y-88580000D03*
%TD*%
D26*
%TO.P,C13,1*%
%TO.N,+3.3V*%
X124670000Y-102617500D03*
%TO.P,C13,2*%
%TO.N,GND*%
X123710000Y-102617500D03*
%TD*%
D27*
%TO.P,D1,1,K*%
%TO.N,/PWR_LED_K*%
X140752500Y-125947500D03*
%TO.P,D1,2,A*%
%TO.N,+3.3V*%
X142327500Y-125947500D03*
%TD*%
D24*
%TO.P,SW6,1,1*%
%TO.N,GND*%
X139750000Y-75050000D03*
X146250000Y-75050000D03*
%TO.P,SW6,2,2*%
%TO.N,/RIGHT_MOUSE*%
X139750000Y-79550000D03*
X146250000Y-79550000D03*
%TD*%
D28*
%TO.P,R4,1*%
%TO.N,/JTCK_SWCLK*%
X92962000Y-92964000D03*
%TO.P,R4,2*%
%TO.N,GND*%
X93982000Y-92964000D03*
%TD*%
D24*
%TO.P,SW2,1,1*%
%TO.N,GND*%
X103100000Y-75270000D03*
X96600000Y-75270000D03*
%TO.P,SW2,2,2*%
%TO.N,/LEFT_MOUSE*%
X96600000Y-79770000D03*
X103100000Y-79770000D03*
%TD*%
D22*
%TO.P,C14,1*%
%TO.N,+3.3V*%
X136690000Y-110980000D03*
%TO.P,C14,2*%
%TO.N,GND*%
X136690000Y-110020000D03*
%TD*%
D25*
%TO.P,C10,1*%
%TO.N,+3.3V*%
X132480000Y-93037500D03*
%TO.P,C10,2*%
%TO.N,GND*%
X132480000Y-93997500D03*
%TD*%
D16*
%TO.P,J2,1,Pin_1*%
%TO.N,+3.3V*%
X83790000Y-89860000D03*
D17*
%TO.P,J2,2,Pin_2*%
%TO.N,/JTMS_SWDIO*%
X83790000Y-92400000D03*
%TO.P,J2,3,Pin_3*%
%TO.N,/JTCK_SWCLK*%
X83790000Y-94940000D03*
%TO.P,J2,4,Pin_4*%
%TO.N,/JTDI*%
X83790000Y-97480000D03*
%TO.P,J2,5,Pin_5*%
%TO.N,/JTDO*%
X83790000Y-100020000D03*
%TO.P,J2,6,Pin_6*%
%TO.N,/NJTRST*%
X83790000Y-102560000D03*
%TO.P,J2,7,Pin_7*%
%TO.N,/NRST*%
X83790000Y-105100000D03*
%TO.P,J2,8,Pin_8*%
%TO.N,GND*%
X83790000Y-107640000D03*
%TD*%
D18*
%TO.P,R1,1*%
%TO.N,/PWR_LED_K*%
X139100000Y-125970000D03*
%TO.P,R1,2*%
%TO.N,GND*%
X138080000Y-125970000D03*
%TD*%
D29*
%TO.P,TP1,1,1*%
%TO.N,Net-(TP1-Pad1)*%
X145000000Y-113130000D03*
%TD*%
D28*
%TO.P,R2,1*%
%TO.N,Net-(R2-Pad1)*%
X134020000Y-86710000D03*
%TO.P,R2,2*%
%TO.N,/BOOT0*%
X135040000Y-86710000D03*
%TD*%
D30*
%TO.P,R3,1*%
%TO.N,+3.3V*%
X149930000Y-93620000D03*
%TO.P,R3,2*%
%TO.N,/USB_D+*%
X149930000Y-94640000D03*
%TD*%
D25*
%TO.P,C8,1*%
%TO.N,+3.3V*%
X147510000Y-92640000D03*
%TO.P,C8,2*%
%TO.N,GND*%
X147510000Y-93600000D03*
%TD*%
D18*
%TO.P,R8,1*%
%TO.N,+3.3V*%
X93982000Y-101854000D03*
%TO.P,R8,2*%
%TO.N,/NJTRST*%
X92962000Y-101854000D03*
%TD*%
D31*
%TO.P,C1,1*%
%TO.N,VBUS*%
X148070000Y-115497500D03*
%TO.P,C1,2*%
%TO.N,GND*%
X149970000Y-115497500D03*
%TD*%
D22*
%TO.P,C5,1*%
%TO.N,/HSE_OUT*%
X116150000Y-98197500D03*
%TO.P,C5,2*%
%TO.N,GND*%
X116150000Y-97237500D03*
%TD*%
D32*
%TO.P,C3,1*%
%TO.N,+3.3V*%
X130640000Y-88400000D03*
%TO.P,C3,2*%
%TO.N,GND*%
X129090000Y-88400000D03*
%TD*%
D29*
%TO.P,TP2,1,1*%
%TO.N,Net-(TP2-Pad1)*%
X145800000Y-108930000D03*
%TD*%
D22*
%TO.P,C11,1*%
%TO.N,+3.3VA*%
X132270000Y-98060000D03*
%TO.P,C11,2*%
%TO.N,GND*%
X132270000Y-97100000D03*
%TD*%
D33*
%TO.P,C6,1*%
%TO.N,+3.3V*%
X154150000Y-121797500D03*
%TO.P,C6,2*%
%TO.N,GND*%
X154150000Y-119897500D03*
%TD*%
D18*
%TO.P,R7,1*%
%TO.N,+3.3V*%
X94236000Y-95758000D03*
%TO.P,R7,2*%
%TO.N,/JTDI*%
X93216000Y-95758000D03*
%TD*%
D34*
%TO.P,U2,1,VBAT*%
%TO.N,+3.3V*%
X136767500Y-93377500D03*
%TO.P,U2,2,PC13*%
%TO.N,unconnected-(U2-Pad2)*%
X136767500Y-93877500D03*
%TO.P,U2,3,PC14*%
%TO.N,unconnected-(U2-Pad3)*%
X136767500Y-94377500D03*
%TO.P,U2,4,PC15*%
%TO.N,unconnected-(U2-Pad4)*%
X136767500Y-94877500D03*
%TO.P,U2,5,PD0*%
%TO.N,/HSE_IN*%
X136767500Y-95377500D03*
%TO.P,U2,6,PD1*%
%TO.N,/HSE_OUT*%
X136767500Y-95877500D03*
%TO.P,U2,7,NRST*%
%TO.N,/NRST*%
X136767500Y-96377500D03*
%TO.P,U2,8,VSSA*%
%TO.N,GND*%
X136767500Y-96877500D03*
%TO.P,U2,9,VDDA*%
%TO.N,+3.3VA*%
X136767500Y-97377500D03*
%TO.P,U2,10,PA0*%
%TO.N,unconnected-(U2-Pad10)*%
X136767500Y-97877500D03*
%TO.P,U2,11,PA1*%
%TO.N,unconnected-(U2-Pad11)*%
X136767500Y-98377500D03*
%TO.P,U2,12,PA2*%
%TO.N,unconnected-(U2-Pad12)*%
X136767500Y-98877500D03*
D35*
%TO.P,U2,13,PA3*%
%TO.N,unconnected-(U2-Pad13)*%
X138180000Y-100290000D03*
%TO.P,U2,14,PA4*%
%TO.N,/SPI1_NSS*%
X138680000Y-100290000D03*
%TO.P,U2,15,PA5*%
%TO.N,/SPI1_SCK*%
X139180000Y-100290000D03*
%TO.P,U2,16,PA6*%
%TO.N,/SPI1_MISO*%
X139680000Y-100290000D03*
%TO.P,U2,17,PA7*%
%TO.N,/SPI1_MOSI*%
X140180000Y-100290000D03*
%TO.P,U2,18,PB0*%
%TO.N,unconnected-(U2-Pad18)*%
X140680000Y-100290000D03*
%TO.P,U2,19,PB1*%
%TO.N,unconnected-(U2-Pad19)*%
X141180000Y-100290000D03*
%TO.P,U2,20,PB2*%
%TO.N,unconnected-(U2-Pad20)*%
X141680000Y-100290000D03*
%TO.P,U2,21,PB10*%
%TO.N,unconnected-(U2-Pad21)*%
X142180000Y-100290000D03*
%TO.P,U2,22,PB11*%
%TO.N,unconnected-(U2-Pad22)*%
X142680000Y-100290000D03*
%TO.P,U2,23,VSS*%
%TO.N,GND*%
X143180000Y-100290000D03*
%TO.P,U2,24,VDD*%
%TO.N,+3.3V*%
X143680000Y-100290000D03*
D34*
%TO.P,U2,25,PB12*%
%TO.N,unconnected-(U2-Pad25)*%
X145092500Y-98877500D03*
%TO.P,U2,26,PB13*%
%TO.N,unconnected-(U2-Pad26)*%
X145092500Y-98377500D03*
%TO.P,U2,27,PB14*%
%TO.N,unconnected-(U2-Pad27)*%
X145092500Y-97877500D03*
%TO.P,U2,28,PB15*%
%TO.N,unconnected-(U2-Pad28)*%
X145092500Y-97377500D03*
%TO.P,U2,29,PA8*%
%TO.N,unconnected-(U2-Pad29)*%
X145092500Y-96877500D03*
%TO.P,U2,30,PA9*%
%TO.N,/USART1_TX*%
X145092500Y-96377500D03*
%TO.P,U2,31,PA10*%
%TO.N,/USART1_RX*%
X145092500Y-95877500D03*
%TO.P,U2,32,PA11*%
%TO.N,/USB_D-*%
X145092500Y-95377500D03*
%TO.P,U2,33,PA12*%
%TO.N,/USB_D+*%
X145092500Y-94877500D03*
%TO.P,U2,34,PA13*%
%TO.N,/JTMS_SWDIO*%
X145092500Y-94377500D03*
%TO.P,U2,35,VSS*%
%TO.N,GND*%
X145092500Y-93877500D03*
%TO.P,U2,36,VDD*%
%TO.N,+3.3V*%
X145092500Y-93377500D03*
D35*
%TO.P,U2,37,PA14*%
%TO.N,/JTCK_SWCLK*%
X143680000Y-91965000D03*
%TO.P,U2,38,PA15*%
%TO.N,/JTDI*%
X143180000Y-91965000D03*
%TO.P,U2,39,PB3*%
%TO.N,/JTDO*%
X142680000Y-91965000D03*
%TO.P,U2,40,PB4*%
%TO.N,/NJTRST*%
X142180000Y-91965000D03*
%TO.P,U2,41,PB5*%
%TO.N,/LEFT_MOUSE*%
X141680000Y-91965000D03*
%TO.P,U2,42,PB6*%
%TO.N,/WH_UP*%
X141180000Y-91965000D03*
%TO.P,U2,43,PB7*%
%TO.N,/WHEEL_CLICK*%
X140680000Y-91965000D03*
%TO.P,U2,44,BOOT0*%
%TO.N,/BOOT0*%
X140180000Y-91965000D03*
%TO.P,U2,45,PB8*%
%TO.N,/WH_DOWN*%
X139680000Y-91965000D03*
%TO.P,U2,46,PB9*%
%TO.N,/RIGHT_MOUSE*%
X139180000Y-91965000D03*
%TO.P,U2,47,VSS*%
%TO.N,GND*%
X138680000Y-91965000D03*
%TO.P,U2,48,VDD*%
%TO.N,+3.3V*%
X138180000Y-91965000D03*
%TD*%
D26*
%TO.P,C12,1*%
%TO.N,+3.3VA*%
X124720000Y-100917500D03*
%TO.P,C12,2*%
%TO.N,GND*%
X123760000Y-100917500D03*
%TD*%
%TO.P,C9,1*%
%TO.N,+3.3V*%
X143980000Y-103357500D03*
%TO.P,C9,2*%
%TO.N,GND*%
X143020000Y-103357500D03*
%TD*%
D36*
%TO.P,U3,1,Vdd_I/O*%
%TO.N,+3.3V*%
X140810000Y-107510000D03*
%TO.P,U3,2,GND*%
%TO.N,GND*%
X140810000Y-108310000D03*
%TO.P,U3,3,RES*%
%TO.N,unconnected-(U3-Pad3)*%
X140810000Y-109110000D03*
%TO.P,U3,4,GND*%
%TO.N,GND*%
X140810000Y-109910000D03*
%TO.P,U3,5,GND*%
X140810000Y-110710000D03*
%TO.P,U3,6,Vs*%
%TO.N,+3.3V*%
X140810000Y-111510000D03*
D37*
%TO.P,U3,7,~{CS}*%
%TO.N,/SPI1_NSS*%
X141810000Y-111510000D03*
D36*
%TO.P,U3,8,INT1*%
%TO.N,Net-(TP1-Pad1)*%
X142810000Y-111510000D03*
%TO.P,U3,9,INT2*%
%TO.N,Net-(TP2-Pad1)*%
X142810000Y-110710000D03*
%TO.P,U3,10,NC*%
%TO.N,unconnected-(U3-Pad10)*%
X142810000Y-109910000D03*
%TO.P,U3,11,RES*%
%TO.N,unconnected-(U3-Pad11)*%
X142810000Y-109110000D03*
%TO.P,U3,12,SDO/ADDR*%
%TO.N,/SPI1_MISO*%
X142810000Y-108310000D03*
%TO.P,U3,13,SDA/SDI/SDIO*%
%TO.N,/SPI1_MOSI*%
X142810000Y-107510000D03*
D37*
%TO.P,U3,14,SCL/SCLK*%
%TO.N,/SPI1_SCK*%
X141810000Y-107510000D03*
%TD*%
D38*
%TO.P,SW1,*%
%TO.N,*%
X82655000Y-76050000D03*
X84865000Y-76050000D03*
X84865000Y-83350000D03*
X82655000Y-83350000D03*
D39*
%TO.P,SW1,1,A*%
%TO.N,GND*%
X85515000Y-77450000D03*
%TO.P,SW1,2,B*%
%TO.N,Net-(R2-Pad1)*%
X85515000Y-80450000D03*
%TO.P,SW1,3,C*%
%TO.N,+3.3V*%
X85515000Y-81950000D03*
%TD*%
D22*
%TO.P,C2,1*%
%TO.N,/HSE_IN*%
X116150000Y-95777500D03*
%TO.P,C2,2*%
%TO.N,GND*%
X116150000Y-94817500D03*
%TD*%
D24*
%TO.P,SW3,1,1*%
%TO.N,GND*%
X117770000Y-66680000D03*
X124270000Y-66680000D03*
%TO.P,SW3,2,2*%
%TO.N,/WH_UP*%
X117770000Y-71180000D03*
X124270000Y-71180000D03*
%TD*%
D40*
%TO.N,GND*%
X158242000Y-100838000D03*
X157734000Y-89154000D03*
X134641977Y-84052023D03*
D41*
X112920000Y-99610000D03*
X140990000Y-123550000D03*
X114490000Y-91430000D03*
D40*
X126238000Y-66802000D03*
D41*
X123710000Y-101800000D03*
D40*
X95250000Y-91694000D03*
X105918000Y-75184000D03*
X126746000Y-75184000D03*
D41*
X129490000Y-93940000D03*
D40*
X157988000Y-108712000D03*
D41*
X136900000Y-108730000D03*
D40*
X86868000Y-74168000D03*
X126492000Y-84074000D03*
D41*
X151400000Y-116927500D03*
X129230000Y-97160000D03*
D40*
X129286000Y-86868000D03*
X86360000Y-107696000D03*
X148590000Y-74930000D03*
D41*
X114922500Y-94817500D03*
D40*
X119380000Y-96266000D03*
X149098000Y-90932000D03*
X144526000Y-105664000D03*
%TO.N,+3.3V*%
X96774000Y-94488000D03*
X96774000Y-98044000D03*
X98552000Y-106172000D03*
X94742000Y-98044000D03*
X123952000Y-93218000D03*
X132334000Y-108458000D03*
X129540000Y-100330000D03*
X132334000Y-110998000D03*
X94996000Y-94488000D03*
X97028000Y-90170000D03*
D41*
X131640000Y-102440000D03*
D40*
X98552000Y-103124000D03*
X95250000Y-90170000D03*
%TO.N,Net-(R2-Pad1)*%
X106680000Y-81534000D03*
X87630000Y-77216000D03*
X132588000Y-86360000D03*
X104902000Y-83312000D03*
X94488000Y-82296000D03*
X97028000Y-83820000D03*
X130026023Y-84560023D03*
X98806000Y-85090000D03*
%TO.N,/BOOT0*%
X139415465Y-85374534D03*
X135995023Y-87524977D03*
%TO.N,/SPI1_NSS*%
X139192000Y-104648000D03*
X140208000Y-113792000D03*
%TO.N,/SPI1_MISO*%
X141224000Y-102362000D03*
X139700000Y-98552000D03*
%TO.N,/JTMS_SWDIO*%
X126746000Y-76962000D03*
X87376000Y-89662000D03*
X129540000Y-73406000D03*
X95250000Y-87376000D03*
X93958023Y-88667977D03*
X103632000Y-82296000D03*
X151057023Y-89226977D03*
X153902023Y-83036023D03*
X106172000Y-80264000D03*
X91694000Y-89408000D03*
%TO.N,/JTCK_SWCLK*%
X151638000Y-87122000D03*
X145288000Y-92202000D03*
%TO.N,/JTDI*%
X146304000Y-90424000D03*
X151130000Y-86106000D03*
X87376000Y-93472000D03*
X86614000Y-96012000D03*
%TO.N,/JTDO*%
X150622000Y-85090000D03*
X146050000Y-89154000D03*
X86360000Y-98552000D03*
X90932000Y-92710000D03*
%TO.N,/NJTRST*%
X149860000Y-84074000D03*
X144272000Y-87122000D03*
X124206000Y-73152000D03*
X127000000Y-72136000D03*
%TO.N,/LEFT_MOUSE*%
X126513977Y-91715977D03*
X124206000Y-91186000D03*
%TO.N,/WH_UP*%
X140208000Y-83058000D03*
X141498559Y-84836000D03*
%TO.N,/WHEEL_CLICK*%
X140249350Y-84823500D03*
X138938000Y-83312000D03*
%TO.N,/WH_DOWN*%
X137816977Y-84836000D03*
X125730000Y-90170000D03*
X127529977Y-90699977D03*
X132334000Y-84836000D03*
%TO.N,/RIGHT_MOUSE*%
X135890000Y-80772000D03*
X135890000Y-84074000D03*
%TD*%
D42*
%TO.N,GND*%
X157280000Y-93250000D02*
X157280000Y-95950000D01*
%TO.N,VBUS*%
X152880000Y-96802000D02*
X152880000Y-99230000D01*
X154620000Y-96100000D02*
X153582000Y-96100000D01*
X153582000Y-96100000D02*
X152880000Y-96802000D01*
%TO.N,GND*%
X154620000Y-92397500D02*
X154705000Y-92312500D01*
X154620000Y-93500000D02*
X154620000Y-92397500D01*
X157280000Y-99876000D02*
X158242000Y-100838000D01*
X157280000Y-98175000D02*
X157280000Y-99876000D01*
X157280000Y-89608000D02*
X157734000Y-89154000D01*
X157280000Y-91425000D02*
X157280000Y-89608000D01*
X156392500Y-92312500D02*
X157280000Y-91425000D01*
X154705000Y-92312500D02*
X156392500Y-92312500D01*
X156392500Y-97287500D02*
X157280000Y-98175000D01*
X154705000Y-97287500D02*
X156392500Y-97287500D01*
X157280000Y-95950000D02*
X157280000Y-98175000D01*
X157280000Y-93250000D02*
X157280000Y-91425000D01*
D43*
%TO.N,VBUS*%
X146800000Y-116767500D02*
X148070000Y-115497500D01*
X160190000Y-112100000D02*
X160190000Y-106540000D01*
X159170000Y-113120000D02*
X160190000Y-112100000D01*
X148070000Y-114620000D02*
X149630000Y-113060000D01*
X159110000Y-113060000D02*
X159170000Y-113120000D01*
X148070000Y-114620000D02*
X148070000Y-115497500D01*
X160190000Y-106540000D02*
X152880000Y-99230000D01*
X146800000Y-116767500D02*
X146800000Y-119637500D01*
X149630000Y-113060000D02*
X159110000Y-113060000D01*
D44*
%TO.N,GND*%
X151400000Y-119637500D02*
X151400000Y-116927500D01*
D43*
X149098000Y-92054965D02*
X149098000Y-90932000D01*
D44*
X115940000Y-91447500D02*
X114507500Y-91447500D01*
D43*
X143180000Y-103197500D02*
X143020000Y-103357500D01*
D44*
X113630000Y-95597500D02*
X114142500Y-95597500D01*
D42*
X139750000Y-75050000D02*
X146250000Y-75050000D01*
D43*
X83790000Y-107640000D02*
X86304000Y-107640000D01*
X138220000Y-109967500D02*
X136742500Y-109967500D01*
D42*
X103100000Y-75270000D02*
X105832000Y-75270000D01*
D43*
X138160000Y-108767500D02*
X138160000Y-109907500D01*
X138680000Y-91965000D02*
X138680000Y-88687500D01*
X136937500Y-108767500D02*
X136900000Y-108730000D01*
X157920000Y-108780000D02*
X157988000Y-108712000D01*
X140810000Y-108310000D02*
X140682500Y-108437500D01*
X85515000Y-77450000D02*
X86868000Y-76097000D01*
X118408500Y-97237500D02*
X119380000Y-96266000D01*
X138710000Y-88120046D02*
X134641977Y-84052023D01*
D42*
X126486000Y-84080000D02*
X126492000Y-84074000D01*
D43*
X116150000Y-97237500D02*
X118408500Y-97237500D01*
X145092500Y-93877500D02*
X147232500Y-93877500D01*
D44*
X114922500Y-94817500D02*
X116150000Y-94817500D01*
X149970000Y-115497500D02*
X151400000Y-116927500D01*
D43*
X140810000Y-109910000D02*
X138277500Y-109910000D01*
D42*
X117540000Y-84080000D02*
X124040000Y-84080000D01*
D44*
X123710000Y-101800000D02*
X123710000Y-100967500D01*
D43*
X143050000Y-104470000D02*
X144244000Y-105664000D01*
D44*
X138080000Y-125970000D02*
X138080000Y-125842685D01*
D42*
X124270000Y-66680000D02*
X126116000Y-66680000D01*
D43*
X132270000Y-97100000D02*
X132492500Y-96877500D01*
X138710000Y-88657500D02*
X138710000Y-88120046D01*
X140067500Y-109967500D02*
X138220000Y-109967500D01*
D44*
X123710000Y-100967500D02*
X123760000Y-100917500D01*
D43*
X86304000Y-107640000D02*
X86360000Y-107696000D01*
X136742500Y-109967500D02*
X136690000Y-110020000D01*
X147510000Y-93600000D02*
X147552965Y-93600000D01*
D44*
X140372685Y-123550000D02*
X140990000Y-123550000D01*
X138080000Y-125842685D02*
X140372685Y-123550000D01*
D43*
X147232500Y-93877500D02*
X147510000Y-93600000D01*
X93982000Y-92962000D02*
X95250000Y-91694000D01*
X132480000Y-93997500D02*
X129547500Y-93997500D01*
X138680000Y-88687500D02*
X138710000Y-88657500D01*
X138160000Y-109907500D02*
X138220000Y-109967500D01*
D44*
X151660000Y-119897500D02*
X151400000Y-119637500D01*
D43*
X140810000Y-110710000D02*
X140067500Y-109967500D01*
D44*
X114507500Y-91447500D02*
X114490000Y-91430000D01*
D42*
X126116000Y-66680000D02*
X126238000Y-66802000D01*
D43*
X140682500Y-108437500D02*
X138490000Y-108437500D01*
D44*
X111930000Y-97797500D02*
X111930000Y-98620000D01*
X154150000Y-119897500D02*
X151660000Y-119897500D01*
D43*
X157920000Y-111190000D02*
X157920000Y-108780000D01*
X129090000Y-87064000D02*
X129286000Y-86868000D01*
D42*
X124490000Y-75110000D02*
X126672000Y-75110000D01*
X105832000Y-75270000D02*
X105918000Y-75184000D01*
D43*
X93982000Y-92964000D02*
X93982000Y-92962000D01*
X143020000Y-103357500D02*
X143020000Y-104440000D01*
D42*
X126672000Y-75110000D02*
X126746000Y-75184000D01*
X124040000Y-84080000D02*
X126486000Y-84080000D01*
D43*
X138277500Y-109910000D02*
X138220000Y-109967500D01*
D42*
X148470000Y-75050000D02*
X148590000Y-74930000D01*
X117770000Y-66680000D02*
X124270000Y-66680000D01*
D43*
X129090000Y-88400000D02*
X129090000Y-87064000D01*
X86868000Y-76097000D02*
X86868000Y-74168000D01*
D42*
X117990000Y-75110000D02*
X124490000Y-75110000D01*
D43*
X144244000Y-105664000D02*
X144526000Y-105664000D01*
X147552965Y-93600000D02*
X149098000Y-92054965D01*
X143020000Y-104440000D02*
X143050000Y-104470000D01*
D42*
X96600000Y-75270000D02*
X103100000Y-75270000D01*
D43*
X138160000Y-108767500D02*
X136937500Y-108767500D01*
D42*
X146250000Y-75050000D02*
X148470000Y-75050000D01*
D44*
X111930000Y-98620000D02*
X112920000Y-99610000D01*
D43*
X132492500Y-96877500D02*
X136767500Y-96877500D01*
X129547500Y-93997500D02*
X129490000Y-93940000D01*
D44*
X123710000Y-102617500D02*
X123710000Y-101800000D01*
D43*
X129290000Y-97100000D02*
X129230000Y-97160000D01*
X132270000Y-97100000D02*
X129290000Y-97100000D01*
X143180000Y-100290000D02*
X143180000Y-103197500D01*
D44*
X114142500Y-95597500D02*
X114922500Y-94817500D01*
D43*
X138490000Y-108437500D02*
X138160000Y-108767500D01*
%TO.N,/HSE_IN*%
X117752500Y-95377500D02*
X117320000Y-95810000D01*
X136767500Y-95377500D02*
X117752500Y-95377500D01*
X116182500Y-95810000D02*
X116150000Y-95777500D01*
X111930000Y-95760000D02*
X111930000Y-95597500D01*
X115280000Y-96647500D02*
X112817500Y-96647500D01*
X112817500Y-96647500D02*
X111930000Y-95760000D01*
X116150000Y-95777500D02*
X115280000Y-96647500D01*
X117320000Y-95810000D02*
X116182500Y-95810000D01*
%TO.N,+3.3V*%
X138160000Y-107807500D02*
X139334500Y-107807500D01*
X149100000Y-125937500D02*
X147273500Y-125937500D01*
X131640000Y-102430000D02*
X129540000Y-100330000D01*
X123952000Y-93218000D02*
X124132500Y-93037500D01*
X133350000Y-108458000D02*
X134112000Y-107696000D01*
X132334000Y-108458000D02*
X133350000Y-108458000D01*
X149930000Y-93620000D02*
X150474000Y-93620000D01*
X130556000Y-88316000D02*
X130640000Y-88400000D01*
X93982000Y-101854000D02*
X97282000Y-101854000D01*
X100584000Y-129540000D02*
X122936000Y-129540000D01*
X130048000Y-85598000D02*
X132588000Y-83058000D01*
X144800000Y-117182894D02*
X150300000Y-111682894D01*
X145092500Y-93377500D02*
X146062500Y-93377500D01*
X127200000Y-102435000D02*
X131635000Y-102435000D01*
X138048500Y-107696000D02*
X138160000Y-107807500D01*
X97028000Y-90170000D02*
X98552000Y-91694000D01*
X146800000Y-92640000D02*
X147510000Y-92640000D01*
X136144000Y-83058000D02*
X137160000Y-84074000D01*
X83790000Y-89860000D02*
X87036000Y-86614000D01*
X128778000Y-85598000D02*
X130048000Y-85598000D01*
X98552000Y-91694000D02*
X98552000Y-97282000D01*
X147273500Y-125937500D02*
X132334000Y-110998000D01*
X88138000Y-86106000D02*
X88138000Y-84573000D01*
X81280000Y-90932000D02*
X81280000Y-110236000D01*
X93982000Y-98806000D02*
X93982000Y-98804000D01*
X143680000Y-103057500D02*
X143980000Y-103357500D01*
X135980000Y-92590000D02*
X132927500Y-92590000D01*
X130048000Y-85598000D02*
X130556000Y-86106000D01*
X83790000Y-89860000D02*
X82352000Y-89860000D01*
X143680000Y-100290000D02*
X143680000Y-103057500D01*
X138167500Y-110980000D02*
X138220000Y-110927500D01*
X93982000Y-98804000D02*
X94742000Y-98044000D01*
X137750000Y-88220000D02*
X132588000Y-83058000D01*
X145013500Y-103357500D02*
X143980000Y-103357500D01*
X122936000Y-129540000D02*
X146558000Y-129540000D01*
X139700000Y-107442000D02*
X140742000Y-107442000D01*
X148336000Y-112014000D02*
X148336000Y-106680000D01*
X124132500Y-93037500D02*
X132480000Y-93037500D01*
X93982000Y-90170000D02*
X95250000Y-90170000D01*
X151892000Y-89002000D02*
X146964000Y-84074000D01*
X123952000Y-93218000D02*
X128016000Y-89154000D01*
X98552000Y-99822000D02*
X98552000Y-100584000D01*
X134112000Y-107696000D02*
X138048500Y-107696000D01*
X96774000Y-98044000D02*
X98552000Y-99822000D01*
X147510000Y-89040000D02*
X147510000Y-92640000D01*
X88138000Y-84573000D02*
X85515000Y-81950000D01*
X146964000Y-84074000D02*
X142544000Y-84074000D01*
X149100000Y-124520000D02*
X144800000Y-120220000D01*
X124670000Y-102617500D02*
X127017500Y-102617500D01*
X94236000Y-95758000D02*
X94236000Y-95248000D01*
X144800000Y-120220000D02*
X144800000Y-117182894D01*
X121920000Y-129540000D02*
X122936000Y-129540000D01*
X151892000Y-92202000D02*
X151892000Y-89002000D01*
X136690000Y-110980000D02*
X138167500Y-110980000D01*
X137160000Y-84074000D02*
X142544000Y-84074000D01*
X132588000Y-83058000D02*
X136144000Y-83058000D01*
X136767500Y-93377500D02*
X136695000Y-93305000D01*
X150300000Y-111682894D02*
X150300000Y-111190000D01*
X94236000Y-95248000D02*
X94996000Y-94488000D01*
X150474000Y-93620000D02*
X151892000Y-92202000D01*
X137750000Y-88657500D02*
X137750000Y-88220000D01*
X146062500Y-93377500D02*
X146800000Y-92640000D01*
X149100000Y-126998000D02*
X149100000Y-125937500D01*
X149100000Y-125937500D02*
X149100000Y-124520000D01*
X98552000Y-106172000D02*
X121920000Y-129540000D01*
X137740000Y-90900000D02*
X137740000Y-88667500D01*
X131635000Y-102435000D02*
X131640000Y-102440000D01*
X139334500Y-107807500D02*
X139700000Y-107442000D01*
X132927500Y-92590000D02*
X132480000Y-93037500D01*
X87036000Y-86614000D02*
X87630000Y-86614000D01*
X137740000Y-88667500D02*
X137750000Y-88657500D01*
X136695000Y-93305000D02*
X135980000Y-92590000D01*
X98552000Y-96266000D02*
X98552000Y-97282000D01*
X97282000Y-101854000D02*
X98552000Y-103124000D01*
X138802500Y-111510000D02*
X140810000Y-111510000D01*
X132352000Y-110980000D02*
X136690000Y-110980000D01*
X127017500Y-102617500D02*
X127200000Y-102435000D01*
X144800000Y-115550000D02*
X148336000Y-112014000D01*
X98552000Y-102616000D02*
X98552000Y-103124000D01*
X128016000Y-89154000D02*
X128016000Y-86360000D01*
X81280000Y-110236000D02*
X100584000Y-129540000D01*
X96774000Y-94488000D02*
X98552000Y-96266000D01*
X130556000Y-86106000D02*
X130556000Y-88316000D01*
X142337500Y-125937500D02*
X149100000Y-125937500D01*
X87630000Y-86614000D02*
X88138000Y-86106000D01*
X148336000Y-106680000D02*
X145013500Y-103357500D01*
X142544000Y-84074000D02*
X147510000Y-89040000D01*
X149100000Y-119637500D02*
X149100000Y-125937500D01*
X132334000Y-110998000D02*
X132352000Y-110980000D01*
X138220000Y-110927500D02*
X138802500Y-111510000D01*
X142327500Y-125947500D02*
X142337500Y-125937500D01*
X138180000Y-91965000D02*
X138180000Y-91340000D01*
X98552000Y-97282000D02*
X98552000Y-100584000D01*
X146558000Y-129540000D02*
X149100000Y-126998000D01*
X131640000Y-102440000D02*
X131640000Y-102430000D01*
X138180000Y-91340000D02*
X137740000Y-90900000D01*
X82352000Y-89860000D02*
X81280000Y-90932000D01*
X144800000Y-117182894D02*
X144800000Y-115550000D01*
X140742000Y-107442000D02*
X140810000Y-107510000D01*
X150010000Y-125937500D02*
X154150000Y-121797500D01*
X128016000Y-86360000D02*
X128778000Y-85598000D01*
X98552000Y-100584000D02*
X98552000Y-102616000D01*
%TO.N,/NRST*%
X114787233Y-100563233D02*
X119654767Y-100563233D01*
X116900000Y-91490465D02*
X115430465Y-92960000D01*
X114440466Y-100910000D02*
X114660233Y-100690233D01*
X110260000Y-92960000D02*
X108980000Y-94240000D01*
X83790000Y-105100000D02*
X110250466Y-105100000D01*
X119654767Y-100563233D02*
X123840500Y-96377500D01*
X111700000Y-100910000D02*
X114440466Y-100910000D01*
X123840500Y-96377500D02*
X136767500Y-96377500D01*
X115430465Y-92960000D02*
X110260000Y-92960000D01*
X108980000Y-98190000D02*
X111700000Y-100910000D01*
X108980000Y-94240000D02*
X108980000Y-98190000D01*
X114660233Y-100690233D02*
X114787233Y-100563233D01*
X110250466Y-105100000D02*
X114787233Y-100563233D01*
X116900000Y-91447500D02*
X116900000Y-91490465D01*
%TO.N,/HSE_OUT*%
X114030000Y-98197500D02*
X113630000Y-97797500D01*
X121546500Y-95877500D02*
X136974607Y-95877500D01*
X116150000Y-98197500D02*
X119226500Y-98197500D01*
X116150000Y-98197500D02*
X114030000Y-98197500D01*
X119226500Y-98197500D02*
X121546500Y-95877500D01*
%TO.N,+3.3VA*%
X130000000Y-98060000D02*
X127200000Y-100860000D01*
X127200000Y-100860000D02*
X124777500Y-100860000D01*
X136767500Y-97377500D02*
X135928959Y-97377500D01*
X135246459Y-98060000D02*
X132270000Y-98060000D01*
X135928959Y-97377500D02*
X135246459Y-98060000D01*
X124777500Y-100860000D02*
X124720000Y-100917500D01*
X132270000Y-98060000D02*
X130000000Y-98060000D01*
%TO.N,/PWR_LED_K*%
X140752500Y-125947500D02*
X139122500Y-125947500D01*
X139122500Y-125947500D02*
X139100000Y-125970000D01*
D45*
%TO.N,/USB_D-*%
X153755000Y-95450000D02*
X153655000Y-95350000D01*
X145092500Y-95377500D02*
X145117499Y-95352501D01*
X145117499Y-95352501D02*
X153455500Y-95352500D01*
X154180000Y-95450000D02*
X153755000Y-95450000D01*
X153655000Y-95350000D02*
X153455500Y-95350000D01*
%TO.N,/USB_D+*%
X145092500Y-94877500D02*
X145117499Y-94902499D01*
X153755000Y-94800000D02*
X153655000Y-94900000D01*
X154180000Y-94800000D02*
X153755000Y-94800000D01*
X153655000Y-94900000D02*
X153455500Y-94900000D01*
X145117499Y-94902499D02*
X153455500Y-94902500D01*
D43*
%TO.N,/USART1_TX*%
X145092500Y-96377500D02*
X147757500Y-96377500D01*
X152880000Y-101500000D02*
X152840000Y-101540000D01*
X147757500Y-96377500D02*
X152880000Y-101500000D01*
X152840000Y-101540000D02*
X152840000Y-111190000D01*
%TO.N,/USART1_RX*%
X155380000Y-103090000D02*
X155380000Y-111190000D01*
X148247500Y-95877500D02*
X155420000Y-103050000D01*
X145092500Y-95877500D02*
X148247500Y-95877500D01*
X155420000Y-103050000D02*
X155380000Y-103090000D01*
%TO.N,Net-(R2-Pad1)*%
X95504000Y-82296000D02*
X97028000Y-83820000D01*
X125984000Y-83058000D02*
X129540000Y-83058000D01*
X130026023Y-83544023D02*
X130026023Y-84560023D01*
X98806000Y-85090000D02*
X103124000Y-85090000D01*
X106680000Y-81534000D02*
X124460000Y-81534000D01*
X103124000Y-85090000D02*
X104902000Y-83312000D01*
X125730000Y-82804000D02*
X125984000Y-83058000D01*
X129540000Y-83058000D02*
X130026023Y-83544023D01*
X133670000Y-86360000D02*
X134020000Y-86710000D01*
X132588000Y-86360000D02*
X133670000Y-86360000D01*
X94488000Y-82296000D02*
X95504000Y-82296000D01*
X124460000Y-81534000D02*
X125730000Y-82804000D01*
X85515000Y-80450000D02*
X85515000Y-79331000D01*
X85515000Y-79331000D02*
X87630000Y-77216000D01*
%TO.N,/BOOT0*%
X135854977Y-87524977D02*
X135040000Y-86710000D01*
X135995023Y-87524977D02*
X135854977Y-87524977D01*
X140180000Y-89915564D02*
X140498559Y-89597005D01*
X140180000Y-91965000D02*
X140180000Y-89915564D01*
X140498559Y-86457628D02*
X139415465Y-85374534D01*
X140498559Y-89597005D02*
X140498559Y-86457628D01*
D42*
%TO.N,/SPI1_NSS*%
X140208000Y-113792000D02*
X141810000Y-112190000D01*
X138680000Y-104136000D02*
X139192000Y-104648000D01*
X141810000Y-112190000D02*
X141810000Y-111510000D01*
X138680000Y-100290000D02*
X138680000Y-104136000D01*
D43*
%TO.N,/SPI1_SCK*%
X139180000Y-103537106D02*
X139180000Y-100290000D01*
X141810000Y-106167106D02*
X139180000Y-103537106D01*
X141810000Y-107510000D02*
X141810000Y-106167106D01*
D42*
%TO.N,/SPI1_MISO*%
X144272000Y-107159000D02*
X144272000Y-107950000D01*
X143285000Y-106113248D02*
X143285000Y-106172000D01*
X139680000Y-100290000D02*
X139680000Y-98572000D01*
D43*
X142810000Y-108310000D02*
X143912000Y-108310000D01*
D42*
X141224000Y-104052248D02*
X143285000Y-106113248D01*
X144272000Y-107950000D02*
X144018000Y-108204000D01*
X139680000Y-98572000D02*
X139700000Y-98552000D01*
X141224000Y-102362000D02*
X141224000Y-104052248D01*
X143285000Y-106172000D02*
X144272000Y-107159000D01*
D43*
X143912000Y-108310000D02*
X144018000Y-108204000D01*
%TO.N,/SPI1_MOSI*%
X142810000Y-106310000D02*
X140180000Y-103680000D01*
X142810000Y-107510000D02*
X142810000Y-106310000D01*
X140180000Y-103680000D02*
X140180000Y-100290000D01*
%TO.N,Net-(TP1-Pad1)*%
X143380000Y-111510000D02*
X145000000Y-113130000D01*
X142810000Y-111510000D02*
X143380000Y-111510000D01*
%TO.N,Net-(TP2-Pad1)*%
X144020000Y-110710000D02*
X145800000Y-108930000D01*
X142810000Y-110710000D02*
X144020000Y-110710000D01*
%TO.N,/JTMS_SWDIO*%
X151130000Y-91414106D02*
X151130000Y-89154000D01*
X86528000Y-89662000D02*
X87376000Y-89662000D01*
X103632000Y-82296000D02*
X100330000Y-82296000D01*
X93958023Y-89173977D02*
X92962000Y-90170000D01*
X83790000Y-92400000D02*
X86528000Y-89662000D01*
X145092500Y-94377500D02*
X148166606Y-94377500D01*
X130048000Y-72898000D02*
X129540000Y-73406000D01*
X109474000Y-76962000D02*
X106172000Y-80264000D01*
X91694000Y-89408000D02*
X92200000Y-89408000D01*
X93958023Y-88667977D02*
X93958023Y-89173977D01*
X92200000Y-89408000D02*
X92962000Y-90170000D01*
X148590000Y-72390000D02*
X130556000Y-72390000D01*
X130556000Y-72390000D02*
X130048000Y-72898000D01*
X151130000Y-89154000D02*
X151057023Y-89226977D01*
X153902023Y-83036023D02*
X153902023Y-77702023D01*
X148166606Y-94377500D02*
X151130000Y-91414106D01*
X153902023Y-77702023D02*
X148590000Y-72390000D01*
X100330000Y-82296000D02*
X95250000Y-87376000D01*
X126746000Y-76962000D02*
X109474000Y-76962000D01*
%TO.N,/JTCK_SWCLK*%
X94742000Y-65278000D02*
X88900000Y-71120000D01*
X90986000Y-94940000D02*
X92962000Y-92964000D01*
X83790000Y-94940000D02*
X90986000Y-94940000D01*
X152908000Y-65278000D02*
X94742000Y-65278000D01*
X156718000Y-87122000D02*
X159512000Y-84328000D01*
X88900000Y-89830000D02*
X83790000Y-94940000D01*
X145051000Y-91965000D02*
X145288000Y-92202000D01*
X159512000Y-84328000D02*
X159512000Y-71882000D01*
X159512000Y-71882000D02*
X152908000Y-65278000D01*
X143680000Y-91965000D02*
X145051000Y-91965000D01*
X88900000Y-71120000D02*
X88900000Y-89830000D01*
X151638000Y-87122000D02*
X156718000Y-87122000D01*
%TO.N,/JTDI*%
X94996000Y-68326000D02*
X91440000Y-71882000D01*
X85146000Y-97480000D02*
X83790000Y-97480000D01*
X143180000Y-91008000D02*
X143510000Y-90678000D01*
X153924000Y-68326000D02*
X113284000Y-68326000D01*
X143180000Y-91965000D02*
X143180000Y-91008000D01*
X86614000Y-96012000D02*
X85146000Y-97480000D01*
X143764000Y-90424000D02*
X146304000Y-90424000D01*
X157988000Y-72390000D02*
X153924000Y-68326000D01*
X113284000Y-68326000D02*
X94996000Y-68326000D01*
X91494000Y-97480000D02*
X93216000Y-95758000D01*
X89154000Y-93472000D02*
X87376000Y-93472000D01*
X91440000Y-71882000D02*
X89916000Y-73406000D01*
X143510000Y-90678000D02*
X143764000Y-90424000D01*
X151130000Y-86106000D02*
X155956000Y-86106000D01*
X89916000Y-73406000D02*
X89916000Y-92710000D01*
X83790000Y-97480000D02*
X91494000Y-97480000D01*
X89916000Y-92710000D02*
X89154000Y-93472000D01*
X157988000Y-84074000D02*
X157988000Y-72390000D01*
X155956000Y-86106000D02*
X157988000Y-84074000D01*
%TO.N,/JTDO*%
X142680000Y-91965000D02*
X142680000Y-90238000D01*
X143764000Y-89154000D02*
X146050000Y-89154000D01*
X96286000Y-69830000D02*
X91694000Y-74422000D01*
X85258000Y-98552000D02*
X83790000Y-100020000D01*
X150622000Y-85090000D02*
X154432000Y-85090000D01*
X152908000Y-69596000D02*
X152674000Y-69830000D01*
X91694000Y-74422000D02*
X90932000Y-75184000D01*
X154432000Y-85090000D02*
X156464000Y-83058000D01*
X86360000Y-98552000D02*
X85258000Y-98552000D01*
X142680000Y-90238000D02*
X143764000Y-89154000D01*
X91748000Y-100020000D02*
X92962000Y-98806000D01*
X90932000Y-75184000D02*
X90932000Y-92710000D01*
X83790000Y-100020000D02*
X91748000Y-100020000D01*
X156464000Y-73152000D02*
X152908000Y-69596000D01*
X152674000Y-69830000D02*
X96286000Y-69830000D01*
X156464000Y-83058000D02*
X156464000Y-73152000D01*
%TO.N,/NJTRST*%
X93218000Y-86868000D02*
X96012000Y-89662000D01*
X154940000Y-74930000D02*
X151384000Y-71374000D01*
X124206000Y-73152000D02*
X95504000Y-73152000D01*
X153924000Y-84074000D02*
X154940000Y-83058000D01*
X149860000Y-84074000D02*
X153924000Y-84074000D01*
X154940000Y-83058000D02*
X154940000Y-74930000D01*
X151384000Y-71374000D02*
X127762000Y-71374000D01*
X92256000Y-102560000D02*
X92962000Y-101854000D01*
X142180000Y-91965000D02*
X142180000Y-89214000D01*
X93218000Y-75438000D02*
X93218000Y-86868000D01*
X142180000Y-89214000D02*
X144272000Y-87122000D01*
X127762000Y-71374000D02*
X127000000Y-72136000D01*
X95504000Y-73152000D02*
X93218000Y-75438000D01*
X83790000Y-102560000D02*
X92256000Y-102560000D01*
X96012000Y-98804000D02*
X92962000Y-101854000D01*
X96012000Y-89662000D02*
X96012000Y-98804000D01*
%TO.N,/LEFT_MOUSE*%
X136652000Y-91948000D02*
X136419977Y-91715977D01*
X141478000Y-93218000D02*
X137946541Y-93218000D01*
X124206000Y-91186000D02*
X120396000Y-91186000D01*
X137946541Y-93218000D02*
X137184541Y-92456000D01*
X137160000Y-92456000D02*
X136652000Y-91948000D01*
X141680000Y-91965000D02*
X141680000Y-93016000D01*
X120396000Y-91186000D02*
X119634000Y-90424000D01*
X96600000Y-79770000D02*
X103100000Y-79770000D01*
X141680000Y-93016000D02*
X141478000Y-93218000D01*
X119634000Y-90424000D02*
X113754000Y-90424000D01*
X113754000Y-90424000D02*
X103100000Y-79770000D01*
X136419977Y-91715977D02*
X126513977Y-91715977D01*
X137184541Y-92456000D02*
X137160000Y-92456000D01*
%TO.N,/WH_UP*%
X134612000Y-81522000D02*
X124270000Y-71180000D01*
X141498559Y-90011217D02*
X141498559Y-84836000D01*
X138672000Y-81522000D02*
X134612000Y-81522000D01*
X141180000Y-90329776D02*
X141498559Y-90011217D01*
X140208000Y-83058000D02*
X138672000Y-81522000D01*
X141180000Y-91965000D02*
X141180000Y-90329776D01*
X117770000Y-71180000D02*
X124270000Y-71180000D01*
%TO.N,/WHEEL_CLICK*%
X140680000Y-90122670D02*
X140998559Y-89804111D01*
X138938000Y-83312000D02*
X137668000Y-82042000D01*
X137668000Y-82042000D02*
X126922000Y-82042000D01*
X126922000Y-82042000D02*
X124490000Y-79610000D01*
X140680000Y-91965000D02*
X140680000Y-90122670D01*
X117990000Y-79610000D02*
X124490000Y-79610000D01*
X140998559Y-89804111D02*
X140998559Y-85572709D01*
X140998559Y-85572709D02*
X140249350Y-84823500D01*
%TO.N,/WH_DOWN*%
X131826000Y-85344000D02*
X132334000Y-84836000D01*
X125630000Y-90170000D02*
X124040000Y-88580000D01*
X130302000Y-90170000D02*
X128059954Y-90170000D01*
X131826000Y-86614000D02*
X131826000Y-89154000D01*
X139998559Y-87017582D02*
X137816977Y-84836000D01*
X139998559Y-89389899D02*
X139998559Y-87017582D01*
X131826000Y-89154000D02*
X130810000Y-90170000D01*
X131826000Y-86614000D02*
X131826000Y-85344000D01*
X125730000Y-90170000D02*
X125630000Y-90170000D01*
X124040000Y-88580000D02*
X117540000Y-88580000D01*
X139680000Y-91965000D02*
X139680000Y-89708458D01*
X130810000Y-90170000D02*
X130302000Y-90170000D01*
X139680000Y-89708458D02*
X139998559Y-89389899D01*
X128059954Y-90170000D02*
X127529977Y-90699977D01*
%TO.N,/RIGHT_MOUSE*%
X139180000Y-91965000D02*
X139180000Y-89501352D01*
X139498559Y-87682559D02*
X135890000Y-84074000D01*
X139750000Y-79550000D02*
X146250000Y-79550000D01*
X139498559Y-89182793D02*
X139498559Y-87682559D01*
X139180000Y-89501352D02*
X139498559Y-89182793D01*
X137112000Y-79550000D02*
X139750000Y-79550000D01*
X135890000Y-80772000D02*
X137112000Y-79550000D01*
%TD*%
M02*
